<?xml version="1.0" standalone="no"?>
<!DOCTYPE svg PUBLIC "-//W3C//DTD SVG 20010904//EN"
 "http://www.w3.org/TR/2001/REC-SVG-20010904/DTD/svg10.dtd">
<svg version="1.0" xmlns="http://www.w3.org/2000/svg"
 width="265.000000pt" height="265.000000pt" viewBox="0 0 265.000000 265.000000"
 preserveAspectRatio="xMidYMid meet">
<metadata>
Created by potrace 1.14, written by Peter Selinger 2001-2017
</metadata>
<g transform="translate(0.000000,265.000000) scale(0.100000,-0.100000)"
fill="#000000" stroke="none">
<path d="M1199 2646 c-2 -2 -32 -7 -67 -11 -66 -7 -220 -48 -309 -83 -82 -31
-184 -92 -177 -104 4 -7 2 -8 -4 -4 -15 9 -57 -14 -102 -54 -38 -34 -24 -30
26 7 17 13 37 23 45 23 9 0 37 11 65 24 75 38 164 65 164 51 0 -6 -14 -21 -30
-34 -32 -23 -31 -46 1 -38 11 3 19 1 19 -4 0 -5 -21 -9 -47 -10 -27 0 -57 -2
-68 -4 -11 -2 -36 -7 -55 -10 -19 -4 -47 -9 -62 -10 -15 -2 -40 -10 -55 -18
-15 -8 -33 -13 -39 -10 -13 4 -157 -135 -204 -197 -19 -25 -37 -47 -40 -50 -7
-6 -65 -95 -98 -150 -35 -60 -93 -203 -87 -217 2 -8 1 -12 -4 -8 -11 6 -34
-92 -25 -107 4 -7 2 -8 -4 -4 -8 5 -13 -3 -14 -21 -1 -15 -3 -39 -4 -53 -1
-14 -5 -34 -10 -45 -5 -11 -9 -93 -9 -182 0 -155 1 -163 23 -186 15 -16 30
-23 43 -20 10 3 19 0 19 -6 0 -6 -13 -11 -30 -11 -19 0 -30 5 -30 14 0 8 -5
18 -11 22 -7 4 -9 0 -5 -12 3 -11 8 -36 12 -57 3 -22 12 -56 19 -78 8 -22 14
-40 13 -42 -1 -1 7 -27 17 -57 98 -300 349 -590 635 -737 378 -194 804 -202
1188 -22 129 61 244 141 347 244 165 164 277 345 344 555 26 82 35 126 55 277
2 13 0 23 -4 23 -4 0 -10 -28 -14 -62 -3 -35 -9 -81 -12 -103 -7 -45 -81 -276
-93 -288 -11 -11 6 97 25 158 11 38 12 62 5 99 -5 27 -8 69 -6 93 2 36 -1 45
-19 55 -11 6 -25 17 -29 24 -7 12 -12 12 -35 0 -47 -24 -124 -28 -148 -8 -43
35 -84 111 -84 155 0 62 17 154 35 189 8 17 15 36 15 42 0 6 15 20 33 29 22
12 43 37 60 71 32 63 33 66 7 59 -11 -3 -20 -1 -20 5 0 5 -9 12 -20 15 -12 3
-18 11 -15 19 3 7 6 36 8 63 4 52 6 54 55 39 19 -5 22 -3 22 18 0 14 -9 37
-20 51 -24 31 -25 41 -3 33 19 -8 33 9 33 39 0 15 -3 16 -9 7 -6 -11 -10 -10
-15 4 -4 9 -2 22 4 28 8 8 9 6 4 -7 -4 -11 -2 -17 5 -15 19 5 105 -147 147
-258 20 -55 21 -61 6 -57 -9 3 -27 26 -40 53 -26 55 -47 68 -72 45 -41 -37
-25 -85 28 -85 29 0 54 -12 54 -26 1 -18 19 -57 40 -86 16 -23 23 -27 29 -16
6 9 9 7 9 -9 0 -13 4 -23 9 -23 5 0 2 27 -6 60 -9 33 -19 58 -23 55 -5 -3 -6
3 -4 12 9 32 -68 211 -136 318 -49 79 -139 191 -192 240 -94 89 -129 116 -140
109 -6 -4 -8 -3 -4 4 8 13 -9 24 -39 28 -12 1 -41 14 -63 28 -23 14 -45 26
-50 26 -4 0 -27 9 -50 20 -22 11 -46 20 -52 20 -5 0 -10 5 -10 11 0 6 -6 9
-14 6 -8 -3 -20 1 -26 9 -7 8 -20 14 -29 14 -9 0 -21 4 -27 9 -5 5 -26 14 -46
21 -21 6 -40 15 -43 19 -6 11 95 -22 185 -61 67 -29 102 -47 197 -104 l28 -16
-30 26 c-39 34 -187 106 -296 144 -114 40 -312 73 -428 71 -50 -1 -91 -5 -91
-10 0 -5 -5 -9 -11 -9 -5 0 -7 5 -4 10 6 10 -7 14 -16 6z m67 -74 l1 -53 -41
6 c-23 3 -53 15 -68 25 -27 19 -27 19 -33 0 -8 -26 3 -62 18 -57 13 4 102 -25
115 -37 4 -4 7 -35 8 -67 0 -60 0 -60 -25 -54 -35 9 -36 10 -11 35 23 23 19
43 -7 33 -9 -4 -19 1 -25 10 -13 25 -37 21 -44 -7 -7 -28 3 -66 17 -66 5 0 9
-4 9 -10 0 -5 -17 -7 -40 -4 -34 5 -45 1 -79 -28 -23 -18 -41 -38 -41 -45 0
-15 80 -74 92 -67 4 3 8 0 8 -6 0 -6 -10 -8 -23 -5 -30 8 -51 -16 -42 -45 5
-17 13 -21 31 -17 30 5 30 0 2 -24 -27 -22 -15 -36 29 -33 15 1 34 3 42 3 11
1 11 4 1 16 -6 8 -9 18 -6 23 9 16 -17 29 -51 27 -36 -3 -50 17 -27 36 12 10
17 9 27 -5 9 -13 30 -18 75 -20 34 -1 62 1 62 6 0 4 4 8 10 8 5 0 7 -7 4 -15
-4 -8 -2 -15 4 -15 5 0 8 -81 7 -210 -1 -115 3 -210 7 -210 5 0 6 -5 2 -11 -4
-6 -16 2 -33 21 -21 25 -36 33 -74 36 -34 4 -49 2 -52 -8 -3 -8 -18 -15 -33
-16 -43 -3 -105 -53 -119 -94 -20 -60 20 -148 67 -148 34 0 72 20 77 40 5 19
48 39 59 27 3 -3 -2 -29 -10 -57 -9 -29 -13 -57 -10 -62 4 -6 23 -8 44 -5 47
6 62 -3 65 -39 1 -16 5 -49 9 -74 l8 -45 -49 51 c-30 32 -63 56 -88 64 -22 7
-52 21 -67 31 -14 11 -46 22 -70 25 -36 5 -48 13 -75 50 -18 24 -33 46 -33 49
0 6 -54 78 -75 100 -5 6 -26 12 -45 13 -19 2 -37 6 -40 11 -16 25 -61 73 -65
69 -3 -2 5 -21 16 -42 19 -35 19 -37 2 -34 -10 2 -18 8 -19 13 -2 36 -21 86
-47 124 -36 53 -41 114 -15 201 9 33 12 59 7 65 -5 5 -9 21 -9 36 0 32 -18 48
-30 28 -6 -8 -10 1 -12 27 -2 31 -7 40 -25 42 -22 3 -90 -27 -114 -50 -19 -18
-89 -59 -89 -52 0 3 20 33 45 65 25 33 43 64 40 69 -3 5 6 16 19 25 14 9 34
32 45 50 11 19 35 42 53 51 36 19 139 41 233 50 77 7 85 10 85 30 0 12 -7 15
-25 12 -33 -7 -31 3 4 24 26 14 32 14 42 2 13 -16 34 -19 24 -4 -3 5 0 7 8 4
8 -3 18 -1 21 4 3 5 -10 13 -29 16 -42 8 -44 19 -9 35 15 6 24 14 21 18 -3 3
-47 -9 -98 -26 -50 -18 -94 -30 -96 -27 -16 16 279 121 372 132 28 4 51 7 52
8 1 0 30 1 65 1 l63 -1 1 -52z m-116 -31 c0 -10 20 -18 60 -26 12 -2 31 -7 43
-11 22 -7 22 -8 -3 -14 -15 -4 -37 -1 -53 7 -16 8 -35 12 -43 9 -8 -3 -14 -2
-15 2 0 4 -2 15 -4 25 -2 9 1 17 6 17 5 0 9 -4 9 -9z m-450 -66 c0 -2 -10 -9
-22 -15 -22 -11 -22 -10 -4 4 21 17 26 19 26 11z m490 -75 c0 -5 10 -10 23
-10 22 -1 22 -1 2 -16 -16 -12 -18 -18 -7 -34 10 -16 10 -20 0 -21 -7 -1 3 -4
22 -8 l35 -6 2 -63 c1 -36 -3 -60 -8 -56 -5 3 -9 13 -9 23 0 10 -9 30 -20 43
-10 14 -17 28 -14 31 3 3 -4 11 -16 17 -18 10 -20 14 -9 22 11 8 12 11 1 15
-16 6 -34 51 -26 64 7 12 24 12 24 -1z m-721 -95 c-12 -19 -34 -45 -51 -56
-16 -12 -28 -28 -26 -38 2 -9 -9 -29 -24 -46 -15 -16 -28 -36 -28 -42 0 -7 -9
-18 -20 -25 -53 -33 10 -31 68 1 23 14 42 28 42 31 0 4 23 17 51 30 57 27 69
21 69 -37 0 -35 8 -41 28 -21 9 9 12 7 13 -12 0 -14 0 -41 1 -60 0 -19 -6 -60
-14 -90 -17 -63 -9 -107 26 -155 21 -28 37 -67 49 -121 4 -17 1 -20 -15 -16
-11 3 -23 0 -27 -6 -11 -18 0 -327 12 -339 3 -3 1 -17 -4 -31 -7 -17 -7 -28
-1 -30 6 -2 8 -12 5 -22 -4 -16 -9 -18 -25 -9 -11 6 -22 8 -25 5 -8 -8 5 -36
17 -36 6 0 8 4 5 10 -4 6 1 7 11 3 12 -4 14 -8 6 -11 -10 -3 -10 -7 -1 -18 6
-8 9 -14 5 -14 -3 0 -1 -11 4 -25 5 -14 6 -25 1 -25 -4 0 -6 -24 -3 -52 l5
-53 -20 22 c-20 23 -310 430 -328 461 -5 9 -12 19 -15 22 -3 3 -27 35 -53 72
-43 61 -73 83 -103 77 -29 -5 -39 3 -40 32 -1 19 2 26 7 18 8 -14 12 -2 24 74
9 59 74 189 91 183 18 -7 30 14 14 24 -9 6 -1 24 29 69 23 34 51 67 62 74 10
6 19 18 19 26 0 11 166 191 176 191 2 0 -6 -16 -17 -35z m1105 19 c9 -8 16
-21 16 -27 0 -7 3 -22 6 -35 l7 -23 -34 20 c-26 16 -34 28 -35 51 0 33 16 39
40 14z m-392 -28 c10 -6 18 -15 18 -19 0 -5 9 -20 20 -34 18 -23 19 -28 6 -42
-10 -11 -12 -22 -6 -31 13 -21 2 -30 -24 -20 -13 5 -27 6 -30 3 -3 -4 -6 -1
-6 6 0 7 -4 9 -10 6 -5 -3 -10 -1 -10 5 0 7 9 9 23 5 21 -6 21 -6 3 9 -11 9
-24 16 -29 16 -6 0 -15 7 -22 16 -6 10 -23 18 -36 18 -47 3 -50 15 -11 51 31
29 42 34 67 29 16 -4 37 -12 47 -18z m548 -39 c19 -8 62 -27 94 -42 l60 -26
-40 -22 c-21 -12 -57 -31 -79 -42 -22 -11 -43 -24 -46 -28 -3 -5 -10 -9 -15
-9 -5 0 -26 -9 -46 -19 -30 -15 -38 -16 -38 -6 0 19 -40 68 -50 62 -17 -10
-34 29 -35 81 -1 30 1 54 5 54 3 0 16 -7 28 -16 25 -17 54 -12 48 8 -3 7 -7
25 -10 40 l-6 26 48 -23 c26 -12 63 -29 82 -38z m-625 -47 c3 -6 -1 -7 -9 -4
-18 7 -21 14 -7 14 6 0 13 -4 16 -10z m145 -40 c0 -5 -4 -10 -10 -10 -5 0 -10
5 -10 10 0 6 5 10 10 10 6 0 10 -4 10 -10z m1052 -68 c-11 -33 -1 -57 25 -57
13 0 19 -9 21 -30 2 -16 13 -42 24 -58 17 -24 18 -31 7 -38 -8 -5 -22 -9 -32
-9 -21 0 -24 -7 -31 -88 -5 -58 -4 -64 14 -69 11 -3 20 -12 20 -19 0 -8 6 -14
13 -14 8 0 7 -3 -3 -10 -8 -5 -14 -21 -15 -36 0 -21 -8 -31 -37 -46 -25 -13
-39 -28 -43 -49 -4 -16 -11 -31 -16 -34 -5 -4 -9 -15 -9 -25 0 -10 -3 -21 -8
-24 -4 -2 -7 64 -7 147 1 84 -1 159 -3 168 -3 13 -27 25 -92 44 -3 1 -18 7
-33 13 -16 7 -35 12 -43 12 -8 0 -14 4 -14 8 0 4 -9 9 -20 10 -43 4 -50 6 -50
13 0 5 34 30 76 56 42 27 82 54 90 61 8 7 14 11 14 8 0 -3 35 19 78 48 42 29
79 52 81 50 2 -2 -1 -16 -7 -32z m-718 -6 c28 -10 7 -26 -25 -19 -20 4 -26 11
-26 29 0 22 1 23 16 11 9 -8 25 -17 35 -21z m781 22 c4 4 -2 -8 -15 -25 -26
-36 -40 -42 -40 -18 0 26 23 55 36 45 6 -6 15 -6 19 -2z m-1229 -33 c1 -10 -6
-15 -22 -15 -14 0 -22 4 -19 10 3 6 13 10 21 10 9 0 12 5 8 13 -4 6 -3 8 1 4
5 -4 10 -14 11 -22z m1248 -47 c15 -37 9 -50 -12 -25 -14 17 -27 86 -13 72 5
-5 16 -27 25 -47z m-804 11 c0 -4 7 -6 15 -3 28 11 15 -4 -17 -20 -37 -19 -55
-8 -39 23 11 19 41 20 41 0z m920 -255 c12 -19 20 -38 17 -41 -13 -12 -77 8
-77 24 0 14 27 53 36 53 1 0 12 -16 24 -36z m-865 -60 c11 -4 26 -8 33 -10 8
-1 21 -6 30 -10 9 -4 21 -8 27 -8 20 -2 14 -34 -20 -104 -22 -45 -40 -72 -49
-70 -18 4 -68 -50 -60 -63 3 -6 13 -8 21 -5 15 6 14 -13 -2 -56 -10 -26 58
-17 73 9 10 18 17 21 35 14 12 -5 25 -9 29 -10 4 -1 13 -4 20 -6 74 -25 105
-35 118 -35 12 0 -2 37 -52 138 -38 75 -73 142 -78 149 -6 7 -10 18 -10 25 0
8 3 9 8 3 4 -5 18 -11 31 -13 13 -2 43 -12 67 -22 24 -11 44 -17 44 -14 0 2
12 -2 27 -10 l28 -14 0 -240 c0 -240 0 -241 -20 -223 -11 10 -42 26 -68 35
-53 20 -53 17 10 86 18 19 30 36 29 38 -2 2 -35 5 -72 6 -84 4 -83 4 -61 17
23 13 22 32 -3 54 -20 18 -21 18 -52 -11 -17 -16 -42 -40 -55 -54 -18 -20 -25
-22 -31 -12 -5 8 -13 13 -18 13 -28 -3 -74 13 -78 28 -3 9 -5 37 -5 63 1 41 5
47 26 53 29 7 26 29 -4 33 -20 3 -21 8 -18 125 2 67 3 125 4 129 1 6 16 1 96
-28z m-428 -9 c18 -6 64 -83 61 -103 -2 -9 -16 -25 -31 -35 -32 -20 -26 -41 9
-34 13 2 24 -1 25 -7 1 -6 2 -41 3 -78 1 -65 1 -66 -18 -47 -13 15 -28 19 -54
17 -44 -3 -49 9 -28 63 19 48 15 59 -24 59 -28 0 -60 -22 -60 -41 0 -14 -45
-29 -69 -22 -26 7 -51 56 -51 101 0 46 54 99 110 108 21 4 41 12 44 20 5 13
39 12 83 -1z m1374 -57 c23 -25 23 -28 6 -28 -8 0 -19 11 -25 25 -14 31 -6 32
19 3z m-1321 -93 c-7 -8 -18 -15 -24 -15 -6 0 -2 7 8 15 25 19 32 19 16 0z
m520 -85 c0 -10 -38 -1 -45 10 -3 5 -2 16 2 26 6 15 8 15 25 -6 10 -12 18 -26
18 -30z m-226 2 c3 -5 -1 -9 -9 -9 -8 0 -15 4 -15 9 0 4 4 8 9 8 6 0 12 -4 15
-8z m-494 -91 c14 -10 43 -24 64 -31 24 -7 62 -35 95 -68 l54 -55 1 -124 c1
-68 -2 -123 -5 -123 -4 0 -15 12 -25 27 -9 15 -26 36 -36 47 -10 11 -18 25
-18 32 0 7 -3 14 -8 16 -4 2 -41 52 -82 111 -41 60 -89 128 -107 152 l-32 43
37 -5 c20 -2 48 -12 62 -22z m-991 -117 c-5 -6 -6 -14 -2 -17 3 -4 1 -13 -6
-20 -9 -11 -7 -20 7 -38 l19 -23 12 22 c7 12 9 27 6 32 -3 6 -2 10 3 10 4 0
33 -36 63 -80 30 -44 58 -80 62 -80 4 0 2 -6 -5 -14 -11 -11 -17 -10 -41 8
-23 17 -29 18 -37 6 -5 -8 -6 -18 -3 -23 3 -5 9 -3 14 4 5 9 15 5 35 -18 23
-27 30 -30 46 -20 16 10 21 9 29 -5 5 -9 15 -23 22 -30 28 -29 57 -87 47 -93
-18 -11 -68 17 -63 35 4 17 -48 70 -68 70 -5 0 -14 12 -20 27 l-10 28 -19 -25
c-15 -20 -21 -23 -31 -12 -11 10 -10 12 4 12 9 0 17 5 17 10 0 6 -4 10 -9 10
-5 0 -7 18 -4 40 4 28 2 40 -7 40 -8 0 -10 -8 -7 -21 5 -19 4 -20 -12 -5 -10
9 -27 16 -39 16 -25 0 -37 20 -45 75 -7 42 4 72 20 62 14 -9 3 43 -13 68 -8
11 -14 26 -14 34 0 8 13 -6 29 -30 20 -28 27 -47 20 -55z m-41 35 c10 -14 10
-18 -3 -23 -11 -4 -15 1 -15 21 0 14 1 24 3 22 1 -2 8 -11 15 -20z m1569 -4
c34 -14 35 -16 19 -33 -9 -10 -16 -20 -16 -23 0 -2 36 -3 80 -2 88 2 88 2 34
-57 -18 -19 -43 -48 -56 -65 -12 -16 -32 -37 -43 -47 -19 -16 -19 -16 -1 -37
23 -25 34 -26 57 -5 17 16 18 15 9 -15 -5 -18 -5 -33 1 -36 5 -4 5 -14 -1 -26
-8 -14 -7 -19 2 -19 8 -1 7 -5 -4 -14 -22 -17 -23 -52 -2 -74 10 -9 12 -18 6
-20 -6 -2 -8 -15 -6 -30 3 -20 2 -23 -5 -12 -5 8 -7 18 -5 22 3 4 -11 8 -31 8
-28 0 -36 -4 -32 -14 3 -7 0 -19 -6 -25 -7 -7 -7 -11 -1 -11 12 0 13 -62 1
-71 -14 -10 -16 -63 -3 -78 6 -8 11 -35 11 -60 0 -45 1 -46 33 -49 l34 -3 -4
55 c-2 33 1 56 7 57 6 1 24 2 41 4 l31 3 -1 -123 c-1 -76 -5 -127 -13 -136
-11 -14 -13 -19 -13 -39 0 -5 -20 -23 -44 -39 -60 -42 -118 -100 -111 -111 3
-5 -3 -20 -14 -32 -20 -20 -20 -23 -5 -46 16 -24 16 -25 -7 -19 -13 4 -29 7
-36 7 -7 0 -21 10 -32 22 -16 16 -19 31 -16 66 4 44 25 85 25 50 0 -16 36 -35
47 -25 2 3 5 252 5 554 0 523 2 562 26 563 1 0 19 -7 39 -15z m657 -63 c8 -15
27 -40 42 -56 26 -25 33 -27 85 -23 32 3 67 11 79 17 16 9 24 8 36 -5 8 -8 19
-15 23 -15 5 0 11 -35 14 -77 3 -43 8 -87 10 -98 2 -11 -2 -34 -9 -51 -7 -17
-18 -71 -25 -120 -6 -49 -20 -107 -32 -129 -72 -143 -264 -356 -407 -452 -138
-92 -310 -167 -465 -202 -266 -59 -594 -21 -845 98 -135 64 -282 165 -273 187
3 8 -2 23 -11 33 -14 16 -15 19 -2 24 21 8 56 93 56 137 0 41 -36 115 -75 158
-14 15 -44 64 -66 110 -25 50 -46 82 -56 82 -11 0 -14 -8 -11 -30 3 -21 0 -30
-9 -30 -7 0 -27 14 -45 30 -17 17 -36 30 -41 30 -6 0 -19 7 -28 16 -17 16 -19
15 -28 -10 -7 -16 -18 -26 -30 -26 -11 0 -21 -6 -24 -12 -5 -15 -31 41 -40 87
-6 27 -5 28 5 8 14 -28 34 -29 48 -4 15 29 13 34 -13 27 -16 -4 -31 1 -45 15
-28 25 -28 33 -1 26 20 -5 21 -3 16 29 -3 19 -2 32 3 29 5 -3 11 -1 15 5 3 6
-1 13 -9 16 -16 6 -13 24 3 24 14 0 21 -43 10 -57 -6 -6 -8 -17 -4 -23 10 -16
53 -12 64 8 10 16 10 16 11 0 0 -9 6 -21 14 -25 8 -4 14 -17 13 -27 -1 -10 4
-21 12 -24 10 -3 12 0 8 12 -8 20 2 20 28 0 14 -11 16 -18 8 -21 -22 -8 -14
-21 22 -39 21 -10 45 -14 60 -10 14 4 25 2 25 -2 0 -5 8 -18 18 -30 9 -11 23
-28 30 -39 7 -10 73 -105 147 -212 l136 -194 -48 -26 c-48 -26 -62 -53 -31
-59 9 -2 36 9 59 24 41 25 43 26 55 8 8 -11 18 -24 24 -31 5 -7 10 -15 10 -17
0 -3 6 -14 14 -23 8 -10 27 -33 41 -50 28 -34 50 -42 57 -21 2 7 3 203 3 434
-1 344 1 421 12 417 7 -3 13 -9 13 -14 0 -6 5 -15 10 -22 6 -7 21 -28 33 -47
36 -54 405 -584 415 -596 5 -5 14 -20 21 -31 6 -12 17 -28 25 -35 7 -8 20 -27
29 -44 13 -25 13 -34 2 -60 -7 -17 -11 -44 -9 -60 4 -41 55 -84 99 -84 39 0
51 12 30 30 -19 16 -19 39 0 46 8 4 15 16 15 29 0 23 56 76 122 118 15 10 30
28 34 41 4 16 15 26 34 30 19 3 64 41 132 108 135 135 140 138 241 141 l82 3
2 134 c2 74 3 151 2 170 -4 198 -3 350 3 350 4 0 14 -12 22 -28z m-2164 -19
c0 -19 -3 -24 -10 -17 -6 6 -8 18 -4 27 9 24 14 21 14 -10z m1770 -50 c77 -28
108 -70 89 -121 -5 -12 -5 -22 -1 -22 4 0 7 -90 7 -201 0 -129 3 -203 10 -209
6 -5 23 -7 38 -6 15 2 27 -1 27 -5 0 -5 -5 -9 -10 -9 -6 0 -53 -43 -105 -95
-52 -52 -97 -95 -99 -95 -8 0 0 219 8 227 5 4 6 3 2 -4 -7 -13 -2 -18 35 -27
26 -6 27 -4 31 39 2 25 -1 45 -5 45 -5 0 -5 5 -2 11 6 8 9 224 6 300 -1 20
-32 30 -53 18 -11 -6 -15 -21 -13 -48 2 -42 -7 -52 -41 -46 -11 2 -23 4 -29 4
-6 1 -10 29 -10 63 0 49 -3 63 -15 64 -8 1 -21 2 -28 2 -11 2 95 132 108 132
2 0 25 -8 50 -17z m-1794 -119 c1 -10 3 -23 5 -29 2 -5 0 -12 -6 -15 -5 -3
-12 12 -16 33 -4 25 -2 36 5 34 6 -2 12 -12 12 -23z m54 -128 c0 -3 -4 -8 -10
-11 -5 -3 -10 -1 -10 4 0 6 5 11 10 11 6 0 10 -2 10 -4z m133 -103 c11 -19 66
-45 78 -37 6 3 7 19 4 36 -5 21 -4 28 4 24 6 -4 11 -16 11 -26 0 -10 5 -22 11
-26 6 -3 19 -25 29 -49 10 -23 31 -57 47 -76 43 -51 64 -87 52 -91 -14 -5 0
-38 16 -38 17 0 12 -65 -9 -113 -25 -57 -53 -63 -97 -21 -19 19 -39 31 -44 27
-4 -5 -5 -3 -2 3 3 6 -14 31 -39 55 -56 54 -112 135 -160 229 -37 75 -38 110
-2 110 11 0 22 8 25 19 4 17 7 18 36 3 18 -8 36 -21 40 -29z m1573 -10 c1 -24
-2 -43 -7 -43 -5 0 -9 4 -9 10 0 5 -13 8 -30 6 -24 -3 -30 1 -31 15 -1 11 -2
25 -3 32 -4 22 6 28 42 25 35 -3 36 -4 38 -45z m-139 -59 c9 -9 26 -14 39 -11
19 3 22 0 21 -22 -2 -22 -8 -26 -39 -29 -35 -3 -36 -2 -40 37 -4 46 -3 47 19
25z m139 -47 c0 -38 -3 -54 -13 -54 -8 0 -9 4 -4 11 5 6 8 27 7 46 -3 31 0 50
7 50 2 0 3 -24 3 -53z m-1139 -343 c-39 -26 -82 -40 -72 -23 8 13 77 48 95 49
8 0 -2 -12 -23 -26z"/>
<path d="M953 2503 c-7 -3 -13 -11 -13 -18 0 -18 27 -27 33 -11 7 17 -5 34
-20 29z"/>
<path d="M996 2503 c-11 -11 -6 -23 9 -23 8 0 15 4 15 9 0 13 -16 22 -24 14z"/>
<path d="M1050 2485 c-16 -20 -8 -38 29 -64 27 -20 32 -21 37 -6 8 21 -5 33
-16 15 -7 -11 -11 -8 -19 14 -6 15 -9 31 -6 36 10 16 -13 20 -25 5z"/>
<path d="M950 2450 c0 -10 26 -20 51 -20 24 0 25 20 2 21 -10 0 -26 2 -35 4
-10 2 -18 0 -18 -5z"/>
<path d="M966 2404 c-21 -20 -20 -23 4 -17 11 3 20 12 20 19 0 18 -5 18 -24
-2z"/>
<path d="M870 2399 c-14 -4 -20 -8 -15 -9 6 -1 18 -3 27 -5 10 -2 20 1 23 5 8
13 -8 18 -35 9z"/>
<path d="M811 2333 c-17 -9 -31 -19 -31 -24 0 -12 17 -11 25 1 11 17 22 2 20
-24 -2 -14 5 -32 14 -40 16 -14 19 -14 37 0 18 15 18 15 -3 11 -29 -6 -39 8
-16 21 13 8 20 6 29 -6 10 -14 14 -15 30 -2 10 8 15 10 11 4 -7 -13 17 -27 27
-17 9 10 7 25 -3 19 -5 -3 -11 1 -15 9 -3 8 -2 14 2 14 25 -4 35 2 24 13 -8 8
-15 8 -28 -3 -9 -7 -27 -12 -40 -11 -13 2 -33 -2 -46 -9 -20 -11 -21 -10 -11
3 10 11 10 17 1 26 -9 9 -9 12 -1 12 6 0 13 -5 15 -11 2 -7 8 -6 16 4 19 22
-18 28 -57 10z"/>
<path d="M964 2265 c-1 -14 3 -25 10 -25 6 0 5 -4 -3 -9 -10 -6 -22 -5 -35 5
-27 18 -34 18 -32 -3 1 -19 -23 -22 -56 -8 -10 4 -18 3 -18 -2 0 -16 67 -32
81 -19 9 8 10 6 6 -11 -4 -20 -1 -23 25 -23 24 0 28 3 24 18 -4 12 3 27 19 42
23 22 36 58 16 45 -5 -3 -12 -1 -16 5 -11 17 -20 11 -21 -15z m-14 -65 c0 -11
-4 -20 -9 -20 -7 0 -8 17 -2 38 4 10 11 -2 11 -18z"/>
<path d="M1013 2213 c9 -9 19 -14 23 -11 10 10 -6 28 -24 28 -15 0 -15 -1 1
-17z"/>
<path d="M273 2054 c-3 -8 -11 -14 -19 -14 -8 0 -14 -4 -14 -8 0 -20 14 -19
48 4 48 33 47 32 17 32 -15 0 -29 -7 -32 -14z"/>
<path d="M172 957 c-9 -11 -10 -17 -2 -22 15 -9 23 -1 18 21 -3 15 -4 16 -16
1z"/>
<path d="M985 710 c-4 -6 -13 -9 -20 -6 -16 6 -29 -24 -16 -37 14 -14 42 -1
35 17 -3 8 0 13 8 13 7 -1 14 2 16 8 5 14 -15 18 -23 5z m-15 -30 c0 -5 -2
-10 -4 -10 -3 0 -8 5 -11 10 -3 6 -1 10 4 10 6 0 11 -4 11 -10z"/>
<path d="M1620 135 c-10 -12 -9 -16 4 -21 22 -8 46 2 46 21 0 19 -34 20 -50 0z
m30 -5 c0 -5 -5 -10 -11 -10 -5 0 -7 5 -4 10 3 6 8 10 11 10 2 0 4 -4 4 -10z"/>
<path d="M2627 1520 c3 -30 6 -65 5 -77 -1 -13 2 -23 7 -23 10 0 3 88 -10 129
-6 17 -6 6 -2 -29z"/>
<path d="M2637 1329 c2 -110 13 -114 13 -6 0 48 -3 87 -7 87 -5 0 -7 -36 -6
-81z"/>
</g>
</svg>
