<?xml version="1.0" standalone="no"?>
<!DOCTYPE svg PUBLIC "-//W3C//DTD SVG 20010904//EN"
 "http://www.w3.org/TR/2001/REC-SVG-20010904/DTD/svg10.dtd">
<svg version="1.0" xmlns="http://www.w3.org/2000/svg"
 width="512.000000pt" height="512.000000pt" viewBox="0 0 512.000000 512.000000"
 preserveAspectRatio="xMidYMid meet">
<metadata>
Created by potrace 1.14, written by Peter Selinger 2001-2017
</metadata>
<g transform="translate(0.000000,512.000000) scale(0.100000,-0.100000)"
fill="#000000" stroke="none">
<path d="M2325 4709 c22 -5 63 -8 90 -7 l50 2 3 -88 c3 -80 1 -87 -15 -83 -10
3 -40 8 -68 12 -56 8 -79 18 -113 49 -23 21 -24 21 -38 2 -32 -44 -10 -106 37
-106 17 0 53 -10 80 -21 27 -12 52 -19 56 -16 3 4 19 -3 34 -14 29 -20 29 -22
29 -120 0 -54 -3 -99 -6 -99 -18 0 -94 24 -94 29 0 4 11 18 25 31 35 33 33 60
-4 60 -20 0 -32 6 -36 19 -7 22 -54 34 -72 19 -7 -6 -13 -30 -13 -54 0 -38 6
-51 41 -89 36 -39 47 -45 81 -45 73 0 78 -8 78 -120 0 -84 -2 -98 -15 -94 -8
4 -15 17 -15 31 0 30 -21 72 -49 97 -12 11 -19 26 -16 36 6 20 -66 70 -109 76
-15 2 -37 6 -47 9 -13 4 -33 -7 -66 -37 -27 -24 -60 -52 -75 -61 -16 -10 -28
-23 -28 -31 0 -18 109 -104 142 -112 16 -3 28 -12 28 -20 0 -16 -16 -19 -25
-4 -11 18 -51 10 -74 -14 -21 -23 -22 -26 -7 -54 18 -35 43 -47 62 -31 11 9
18 8 29 -1 9 -7 18 -10 22 -6 3 3 14 -1 24 -10 11 -10 19 -12 23 -5 8 13 -11
51 -24 51 -6 0 -10 5 -10 10 0 13 62 12 120 -1 38 -9 46 -8 57 7 7 10 23 18
34 19 20 2 20 1 5 -10 -20 -15 -20 -29 -1 -45 14 -12 15 -49 11 -289 -2 -152
-7 -296 -11 -319 -5 -28 -3 -48 4 -55 6 -6 11 -27 11 -47 l0 -35 -30 47 c-39
62 -64 77 -141 84 -57 6 -66 4 -83 -15 -11 -11 -31 -21 -45 -21 -67 -1 -180
-84 -213 -156 -20 -46 -17 -80 13 -152 30 -69 59 -92 120 -92 53 0 61 6 133
91 17 20 70 26 81 9 3 -5 -3 -31 -14 -56 -12 -26 -21 -59 -21 -73 0 -15 -5
-32 -12 -39 -21 -21 4 -31 92 -34 l85 -3 11 -85 c6 -47 16 -98 23 -113 6 -16
11 -33 11 -38 0 -19 -62 26 -85 61 -36 56 -67 79 -150 111 -43 16 -91 39 -107
50 -35 26 -109 49 -153 49 -20 0 -39 8 -52 23 -38 42 -103 143 -103 160 0 9
-8 21 -19 26 -10 6 -38 37 -62 70 l-44 61 -53 0 c-57 0 -61 3 -139 97 -20 24
-39 41 -43 38 -8 -5 38 -103 61 -131 15 -18 5 -18 -31 1 -24 12 -30 22 -30 48
0 18 -7 42 -15 53 -8 10 -15 28 -15 40 0 11 -19 47 -41 78 -73 102 -84 176
-45 303 35 115 36 123 20 154 -7 15 -14 41 -14 58 0 58 -31 86 -45 40 -10 -31
-20 -13 -16 32 3 52 -20 89 -57 89 -35 0 -139 -49 -183 -87 -19 -16 -56 -42
-83 -59 -26 -16 -62 -38 -80 -48 -27 -17 -25 -13 17 32 26 28 47 56 47 62 0 5
25 37 55 70 54 59 69 88 40 76 -30 -11 -14 14 25 40 22 15 53 48 70 75 32 52
83 95 146 121 47 19 306 58 387 58 44 0 62 5 77 20 16 16 18 25 10 40 -12 23
-23 25 -50 8 -10 -7 -23 -9 -27 -4 -9 9 33 46 53 46 7 0 18 9 24 20 10 19 12
18 40 -13 28 -32 29 -32 57 -15 41 25 38 32 -19 46 -76 18 -76 21 3 65 17 10
29 20 27 23 -6 6 -117 -25 -213 -60 -38 -14 -77 -26 -86 -26 -8 0 -31 -11 -49
-25 -19 -14 -51 -30 -70 -36 -42 -13 -93 -48 -70 -49 8 0 55 19 105 43 49 24
124 55 165 68 41 14 83 29 93 34 32 13 -2 -43 -39 -66 -59 -36 -57 -86 2 -74
19 3 34 2 34 -3 0 -16 -28 -22 -100 -22 -37 0 -103 -6 -146 -14 -44 -8 -103
-17 -133 -21 -30 -3 -72 -15 -95 -27 -60 -30 -132 -93 -146 -128 -7 -16 -35
-46 -62 -65 -53 -39 -68 -62 -48 -75 11 -7 4 -19 -27 -53 -23 -25 -49 -60 -58
-78 -19 -37 -120 -136 -147 -145 -22 -6 -24 -44 -3 -44 8 0 22 8 32 18 10 10
63 44 118 77 55 32 115 72 134 88 38 33 146 87 173 87 24 0 32 -18 33 -77 1
-68 18 -88 46 -53 l21 25 -5 -37 c-4 -23 0 -43 8 -55 21 -26 18 -60 -10 -143
-43 -126 -31 -223 39 -319 38 -52 67 -120 70 -167 1 -16 6 -35 9 -42 5 -7 -7
-12 -35 -14 l-43 -3 -3 -191 c-2 -161 0 -193 13 -204 12 -10 15 -42 15 -176
l0 -165 -30 16 c-71 37 -80 6 -15 -52 l45 -40 0 -133 c0 -105 -3 -130 -12
-122 -7 6 -182 249 -388 540 l-375 530 -87 4 -86 3 -5 -35 c-5 -37 -21 -124
-37 -200 -6 -25 -11 -100 -13 -167 -2 -114 -1 -123 21 -145 27 -30 28 -38 2
-31 -22 6 -22 6 -25 -49 -2 -43 7 -48 30 -15 12 14 19 18 22 10 3 -9 10 -10
24 -3 23 13 26 -2 4 -20 -22 -18 -18 -43 10 -74 32 -34 41 -33 55 9 13 38 -1
100 -23 108 -7 2 -9 8 -5 12 5 5 9 6 11 4 2 -2 39 -56 82 -119 43 -63 103
-148 132 -187 49 -66 59 -93 33 -93 -6 0 -9 10 -7 22 1 15 -4 23 -17 26 -16 3
-18 0 -13 -27 4 -17 3 -31 -2 -31 -5 0 -11 14 -15 30 -4 20 -15 34 -33 42 -16
7 -31 17 -36 23 -9 13 -46 -33 -48 -60 0 -14 -2 -15 -6 -5 -2 8 -9 25 -15 37
-6 11 -8 27 -5 35 3 7 6 4 6 -9 1 -12 6 -25 12 -28 7 -5 9 11 7 46 -3 57 -23
77 -34 35 -7 -29 -19 -34 -28 -11 -3 10 -19 15 -44 15 -49 0 -59 12 -68 80
-10 84 -26 97 -21 18 6 -90 24 -118 78 -118 56 0 47 -25 -10 -26 -23 -1 -44
-3 -47 -6 -2 -3 2 -32 10 -64 l14 -59 1 54 c1 44 4 52 17 47 9 -3 17 -6 20 -6
2 0 1 -13 -2 -29 -3 -16 -1 -38 5 -49 8 -15 7 -23 -4 -32 -8 -6 -19 -8 -26 -4
-7 4 -10 2 -7 -7 3 -8 13 -13 24 -12 10 1 24 -6 31 -15 11 -15 12 -13 13 15 0
17 -5 44 -10 59 -6 15 -8 30 -4 33 4 3 9 0 11 -6 3 -7 9 -13 14 -13 15 0 10
32 -8 52 -15 17 -15 19 3 32 18 13 19 12 25 -18 3 -17 9 -37 13 -44 4 -7 1
-15 -8 -18 -23 -9 -20 -41 4 -54 32 -17 74 -8 85 17 11 25 31 32 21 8 -5 -14
10 -35 42 -55 12 -8 14 -13 5 -16 -17 -7 -16 -35 0 -58 12 -17 14 -17 27 -1
11 13 11 21 2 36 -18 28 3 23 40 -10 32 -28 32 -30 15 -49 -21 -22 -16 -27 54
-60 53 -26 76 -27 98 -8 14 12 46 -28 284 -367 147 -210 274 -395 282 -410 13
-25 13 -29 -3 -34 -85 -30 -152 -73 -152 -98 0 -18 35 -29 67 -20 14 3 50 22
79 41 30 18 58 34 62 34 4 0 15 -12 24 -28 9 -15 53 -78 98 -140 65 -90 86
-112 105 -112 17 0 26 7 30 23 3 12 5 338 3 725 -2 386 0 702 3 702 3 0 23
-26 44 -57 34 -51 180 -262 742 -1067 168 -241 174 -256 132 -326 -14 -22 -17
-36 -10 -38 7 -2 9 -16 6 -35 -12 -64 65 -134 158 -144 28 -3 49 1 62 10 20
15 20 16 -7 44 -35 36 -35 43 2 78 21 20 28 35 24 48 -4 12 2 28 18 44 34 37
138 118 175 137 34 17 63 61 63 94 0 15 9 21 33 25 59 10 98 22 97 30 -1 9
153 172 230 244 25 22 52 48 60 58 8 9 39 31 69 50 l53 35 128 0 c114 0 129 2
134 18 8 29 10 500 3 799 -7 255 -6 282 9 276 8 -3 29 -29 45 -58 33 -59 63
-94 102 -120 21 -14 37 -16 74 -10 27 5 58 7 70 6 12 -1 45 10 74 24 41 21 53
24 60 13 5 -7 9 -17 9 -21 0 -4 15 -14 33 -22 34 -14 34 -14 29 -71 -3 -32 1
-102 8 -156 13 -94 12 -102 -8 -161 -12 -34 -28 -114 -37 -177 -18 -135 -18
-143 -5 -135 6 3 10 17 10 31 0 14 4 22 10 19 5 -3 7 0 4 8 -8 23 23 210 46
267 20 51 20 56 5 145 -8 50 -14 125 -13 166 3 70 2 74 -20 77 -12 2 -32 17
-44 33 -26 34 -36 35 -88 9 -22 -11 -53 -20 -71 -20 -17 0 -49 -5 -70 -11 -33
-10 -42 -9 -73 10 -22 14 -50 47 -72 84 -19 34 -44 69 -54 77 -16 13 -19 29
-20 115 0 110 10 178 41 270 36 108 47 130 66 140 68 36 96 62 119 111 14 30
24 55 22 57 -2 1 5 15 14 29 21 32 12 43 -18 23 -20 -13 -22 -12 -27 6 -3 11
-20 24 -37 30 -26 9 -31 16 -26 33 4 11 9 58 13 104 3 45 9 85 13 87 5 3 29
-3 54 -12 62 -23 75 -11 52 50 -9 24 -28 59 -42 78 -25 34 -17 52 12 28 14
-11 18 -10 31 6 24 34 27 66 9 96 -10 16 -14 34 -11 40 4 5 -11 28 -34 49 -23
22 -41 46 -41 54 0 20 -245 273 -324 335 -131 102 -503 291 -781 396 -38 15
-82 33 -96 41 -15 8 -80 23 -145 34 -100 17 -161 20 -379 19 -172 -1 -246 -4
-220 -10z m-46 -148 c22 -22 80 -41 126 -41 29 0 65 -15 55 -22 -3 -2 -18 -8
-35 -14 -24 -8 -39 -6 -73 9 -23 10 -55 19 -70 20 -23 2 -28 8 -30 35 -4 37 1
39 27 13z m-429 -111 c0 -5 -2 -10 -4 -10 -3 0 -8 5 -11 10 -3 6 -1 10 4 10 6
0 11 -4 11 -10z m494 -114 c11 -18 21 -23 38 -19 22 6 22 5 -4 -24 -33 -34
-34 -40 -11 -65 29 -32 -2 -19 -34 15 -31 32 -50 87 -38 107 11 17 32 11 49
-14z m599 -101 c32 -13 38 -22 55 -77 10 -35 17 -67 15 -71 -3 -4 -28 5 -56
21 l-52 29 -3 57 c-2 31 -1 56 1 56 3 0 21 -7 40 -15z m-621 -68 c15 -11 28
-27 28 -35 0 -8 16 -32 35 -55 l35 -41 -27 -28 c-26 -27 -26 -28 -8 -47 31
-35 14 -50 -42 -38 -59 13 -59 13 -43 32 15 19 -2 45 -31 45 -10 0 -32 13 -49
30 -31 31 -71 47 -89 36 -11 -7 -61 21 -61 34 0 4 10 10 23 13 12 4 40 25 62
47 39 40 41 41 90 34 27 -3 62 -16 77 -27z m927 -70 c124 -56 226 -107 228
-112 2 -6 -14 -18 -34 -27 -51 -23 -342 -176 -370 -194 -21 -13 -23 -13 -23 6
0 47 -73 138 -89 112 -5 -9 -16 -1 -34 26 -24 34 -27 48 -27 120 0 45 2 82 4
82 2 0 24 -11 47 -25 50 -28 77 -32 85 -11 5 12 -7 72 -23 112 -3 8 -1 14 3
13 5 0 110 -46 233 -102z m-1054 -68 c12 -19 -5 -23 -22 -6 -16 16 -16 17 -1
17 9 0 20 -5 23 -11z m90 -59 c3 -6 -1 -13 -10 -16 -19 -8 -30 0 -20 15 8 14
22 14 30 1z m153 -2 c19 -19 14 -30 -10 -22 -29 8 -31 10 -23 23 8 14 18 14
33 -1z m-232 -53 c27 -36 27 -58 0 -36 -8 7 -25 9 -39 6 -20 -5 -27 -2 -32 15
-7 23 9 50 31 50 7 0 25 -16 40 -35z m2034 6 c0 -5 -10 -11 -22 -13 -13 -2
-23 -10 -23 -19 0 -8 -8 -27 -18 -42 -22 -34 -22 -49 4 -81 17 -21 24 -24 35
-15 8 7 15 10 17 8 31 -54 37 -73 26 -80 -9 -5 -3 -23 25 -64 l38 -57 -24 -16
c-12 -9 -32 -15 -44 -14 -33 5 -41 -15 -54 -137 -13 -120 -10 -130 32 -131 9
0 23 -13 32 -30 12 -24 12 -30 1 -30 -18 0 -24 -21 -12 -41 16 -26 -13 -70
-67 -99 -27 -14 -53 -33 -57 -41 -30 -58 -63 -155 -74 -214 -12 -64 -13 -43
-14 253 l-1 322 -27 11 c-92 36 -368 129 -384 129 -10 0 -19 3 -19 8 0 4 120
83 266 177 147 93 283 182 303 197 37 28 61 35 61 19z m-1262 -77 c6 4 18 -4
26 -16 14 -19 14 -23 2 -30 -8 -5 -26 -3 -41 4 -21 9 -31 9 -46 0 -18 -11 -19
-9 -19 45 l0 57 34 -33 c19 -18 39 -30 44 -27z m1315 -66 c39 -90 43 -108 28
-108 -20 0 -50 53 -57 98 -9 64 -14 70 -30 32 -8 -17 -19 -30 -26 -28 -23 8
-21 55 3 88 29 38 34 33 82 -82z m-1313 -13 c9 -11 16 -12 25 -5 12 10 25 4
25 -12 0 -7 -111 -68 -125 -68 -8 0 -6 47 5 74 11 30 50 36 70 11z m1370 -44
c-1 -10 -6 -7 -15 9 -19 33 -18 50 0 26 8 -11 15 -27 15 -35z m-15 -211 c3 -5
1 -10 -4 -10 -6 0 -11 5 -11 10 0 6 2 10 4 10 3 0 8 -4 11 -10z m-1073 -332
l338 -113 0 -361 c0 -199 3 -383 7 -410 l6 -49 -40 36 c-24 22 -66 45 -106 58
-36 12 -70 28 -76 35 -8 10 6 32 58 92 l69 79 -118 5 c-65 3 -121 8 -125 11
-3 4 11 21 31 38 20 18 34 33 32 34 -2 1 -20 18 -41 37 l-37 34 -89 -88 c-83
-83 -111 -98 -111 -60 0 8 -5 12 -10 9 -6 -4 -33 1 -61 10 -28 10 -53 14 -56
11 -3 -3 -12 -1 -20 5 -9 8 -13 40 -13 109 l0 98 34 6 c49 9 63 30 34 50 -12
9 -33 16 -45 16 l-23 0 0 210 c0 161 3 210 13 210 6 0 164 -50 349 -112z
m-883 33 c14 -9 29 -26 35 -36 6 -11 21 -36 34 -57 12 -21 22 -51 22 -68 0
-26 -6 -33 -33 -45 -18 -7 -41 -23 -51 -34 -18 -20 -18 -21 8 -32 20 -9 32 -9
51 -1 14 7 28 12 30 12 2 0 3 -84 3 -187 -1 -118 -3 -162 -7 -120 -8 94 -29
111 -123 104 l-68 -4 6 26 c3 14 15 53 27 87 28 82 21 96 -45 92 -48 -3 -53
-6 -83 -48 -35 -51 -85 -71 -133 -54 -42 14 -84 104 -79 172 3 46 9 58 43 93
46 47 126 89 169 89 20 0 35 7 43 21 12 19 19 20 70 14 31 -3 68 -14 81 -24z
m66 -241 c-10 -11 -25 -20 -34 -20 -12 1 -10 5 8 20 30 26 49 26 26 0z m505
-130 c0 -5 -11 -10 -25 -10 -14 0 -25 5 -25 10 0 6 11 10 25 10 14 0 25 -4 25
-10z m-920 -120 c30 -6 74 -23 99 -39 25 -16 78 -40 117 -55 70 -26 116 -62
128 -101 3 -11 28 -34 54 -52 l49 -31 -2 -219 c-1 -120 -3 -220 -4 -223 0 -2
-13 13 -28 35 -95 142 -468 671 -475 673 -11 5 -10 22 1 22 4 0 32 -5 61 -10z
m-1610 -82 c0 -7 18 -38 40 -68 37 -50 38 -55 23 -72 -24 -26 -35 -22 -28 10
4 21 1 33 -11 43 -17 14 -44 69 -44 89 0 15 20 12 20 -2z m2573 -86 c70 -27
78 -39 45 -66 -16 -12 -28 -25 -28 -29 0 -4 58 -7 129 -7 72 0 132 -3 134 -7
3 -5 -55 -76 -129 -160 l-134 -152 37 -30 c21 -17 41 -31 44 -31 6 0 190 201
246 269 21 26 22 26 55 9 18 -10 58 -27 89 -38 66 -24 92 -49 113 -109 13 -39
13 -48 0 -73 -13 -25 -13 -29 1 -34 14 -6 16 -44 14 -341 -1 -217 2 -338 9
-345 5 -5 35 -8 66 -6 31 1 56 0 56 -4 0 -4 -22 -19 -50 -33 -28 -14 -56 -37
-64 -53 -8 -16 -32 -42 -53 -57 -21 -16 -78 -69 -126 -119 l-88 -91 3 320 3
320 -50 0 -50 0 -3 -77 -3 -78 -69 0 -70 0 0 105 0 105 -50 0 -50 0 0 -105 c0
-87 -3 -105 -15 -105 -12 0 -15 -13 -15 -55 0 -42 3 -55 15 -55 12 0 15 -17
15 -95 l0 -95 53 0 53 0 -4 95 -4 95 71 0 71 0 0 -200 c0 -193 1 -200 20 -200
11 0 20 -4 20 -10 0 -5 -16 -10 -35 -10 -36 0 -38 -3 -49 -53 -8 -32 -28 -53
-86 -87 -24 -14 -74 -55 -112 -92 -57 -55 -68 -71 -63 -89 5 -16 0 -28 -24
-50 -37 -34 -38 -39 -6 -69 36 -34 31 -44 -16 -36 -97 16 -158 70 -138 124 5
13 7 32 4 41 -2 9 1 36 9 61 l13 44 24 -37 c18 -28 31 -37 52 -37 l27 0 0 911
c0 857 1 913 18 925 22 17 19 17 75 -4z m-2473 -142 c0 -42 -12 -52 -28 -23
-6 11 -6 25 1 40 16 35 27 28 27 -17z m871 -86 c12 -16 10 -16 -18 1 -18 11
-33 23 -33 28 0 11 34 -8 51 -29z m-693 -212 c2 -11 12 -28 22 -37 18 -17 21
-17 45 -1 15 10 31 14 39 9 8 -4 44 -50 81 -102 52 -74 63 -96 54 -107 -15
-18 -43 -18 -59 1 -7 8 -22 15 -35 15 -31 0 -38 11 -20 30 15 16 13 20 -17 51
-18 19 -54 48 -80 66 -29 19 -48 40 -50 55 -4 29 -41 32 -47 3 -6 -35 -61 -51
-61 -18 0 9 3 13 6 10 13 -13 42 13 47 42 6 30 7 30 39 17 19 -8 34 -23 36
-34z m862 -1086 c0 -8 -122 -76 -147 -82 -19 -5 -25 -3 -21 7 7 25 168 96 168
75z"/>
<path d="M3192 3021 c-61 -130 -62 -131 -92 -125 -25 5 -31 2 -41 -19 -6 -14
-22 -30 -36 -36 -37 -17 -26 -45 19 -49 l38 -3 -25 -49 c-14 -27 -25 -52 -25
-55 0 -3 25 -5 56 -5 53 0 55 1 70 35 8 19 20 35 27 35 6 0 77 -23 156 -50 79
-28 151 -50 160 -50 12 0 -16 64 -106 247 -67 136 -126 249 -131 251 -5 1 -36
-56 -70 -127z m98 -141 c20 -39 27 -75 13 -68 -5 3 -23 10 -40 17 -36 14 -39
26 -21 66 15 34 24 32 48 -15z"/>
<path d="M3163 2124 c-9 -4 -13 -35 -13 -104 0 -75 -3 -101 -14 -107 -8 -5
-16 -28 -17 -53 -3 -36 0 -45 14 -48 15 -3 17 -16 17 -98 l0 -94 50 0 50 0 0
95 0 95 70 0 70 0 0 -204 0 -203 33 -6 c17 -4 41 -9 52 -12 20 -6 20 -1 21
340 l2 345 -54 0 -53 0 -3 -77 -3 -78 -65 0 -65 0 -1 105 -2 105 -38 2 c-22 1
-45 0 -51 -3z"/>
<path d="M2014 4505 c-9 -24 22 -53 38 -37 9 9 10 17 2 29 -15 24 -33 27 -40
8z"/>
<path d="M1930 4500 c-12 -7 -12 -13 -4 -27 24 -39 76 -24 55 16 -13 23 -28
26 -51 11z m30 -20 c0 -5 -5 -10 -11 -10 -5 0 -7 5 -4 10 3 6 8 10 11 10 2 0
4 -4 4 -10z"/>
<path d="M2106 4471 l-27 -29 31 -36 c40 -45 55 -47 45 -3 -4 17 -8 44 -9 59
-2 39 -9 41 -40 9z m19 -32 c11 -17 -1 -21 -15 -4 -8 9 -8 15 -2 15 6 0 14 -5
17 -11z"/>
<path d="M1942 4422 c4 -21 97 -47 112 -32 14 14 3 21 -59 35 -51 12 -56 12
-53 -3z"/>
<path d="M2181 4382 c-8 -15 -7 -23 5 -33 14 -11 18 -10 30 6 8 11 13 24 11
30 -6 18 -35 17 -46 -3z"/>
<path d="M1967 4350 c-33 -26 -35 -44 -4 -35 33 10 53 33 41 45 -7 7 -19 4
-37 -10z"/>
<path d="M1790 4330 c0 -12 45 -24 65 -16 29 11 15 26 -25 26 -22 0 -40 -4
-40 -10z"/>
<path d="M1731 4240 c-33 -14 -81 -50 -81 -61 0 -14 22 -11 41 7 28 25 45 12
42 -34 -1 -29 4 -45 18 -58 25 -22 24 -30 -3 -39 -38 -11 66 -57 111 -50 32 6
33 5 27 -19 -7 -28 2 -31 64 -26 33 3 34 4 19 28 -11 18 -8 26 29 67 43 48 55
82 27 71 -9 -3 -20 3 -27 14 -16 25 -26 25 -55 -2 -20 -19 -23 -19 -23 -4 0
25 -28 31 -50 11 -11 -10 -20 -13 -20 -7 0 6 5 14 10 17 6 3 10 10 10 16 0 16
-43 10 -83 -11 -55 -29 -56 -25 -7 25 24 24 41 47 39 50 -12 11 -65 14 -88 5z
m51 -32 c-6 -6 -19 -7 -29 -3 -17 7 -17 8 2 15 24 9 41 2 27 -12z m44 -67
c-11 -18 21 -33 44 -21 17 9 24 8 39 -11 l17 -22 21 27 c14 17 24 23 28 16 4
-6 -1 -20 -10 -30 -16 -18 -16 -20 -1 -26 14 -5 13 -10 -8 -35 -16 -19 -22
-36 -19 -50 4 -15 2 -20 -7 -17 -19 6 -23 48 -5 54 25 10 17 30 -17 47 -37 18
-51 13 -43 -12 9 -30 -19 -46 -55 -31 -38 16 -37 21 2 43 25 14 29 20 18 27
-8 5 -21 5 -31 0 -12 -7 -21 -5 -29 5 -14 17 -14 17 15 33 24 14 48 15 41 3z"/>
<path d="M1920 4195 c-10 -12 -10 -19 -1 -28 14 -14 46 2 46 24 0 20 -30 23
-45 4z"/>
<path d="M2025 4051 c-6 -11 32 -41 52 -41 19 0 16 21 -4 36 -21 16 -40 18
-48 5z"/>
<path d="M850 3897 l-25 -32 33 23 c17 13 32 28 32 33 0 17 -15 8 -40 -24z"/>
<path d="M2172 3830 c-40 -25 -46 -37 -23 -49 27 -15 151 -14 151 0 0 14 -48
52 -76 60 -14 4 -34 0 -52 -11z m72 -16 c31 -12 16 -24 -29 -24 -42 0 -54 7
-38 23 8 9 46 9 67 1z"/>
<path d="M4400 3701 c0 -6 4 -13 10 -16 6 -3 7 1 4 9 -7 18 -14 21 -14 7z"/>
<path d="M4420 3665 c0 -5 9 -21 20 -35 11 -14 20 -20 20 -15 0 6 -9 21 -20
35 -11 14 -20 21 -20 15z"/>
<path d="M682 3638 c-16 -16 -15 -38 2 -38 7 0 19 6 25 14 16 19 -10 41 -27
24z"/>
<path d="M4418 3383 c-72 -76 -51 -126 57 -138 54 -5 64 -10 67 -27 2 -12 9
-23 16 -26 36 -12 -17 143 -67 196 -28 29 -42 28 -73 -5z m68 -26 c44 -68 53
-85 47 -90 -8 -9 -106 4 -120 16 -20 15 -15 43 13 76 14 17 29 31 32 31 4 0
16 -15 28 -33z"/>
<path d="M513 3274 c-7 -7 -13 -25 -13 -39 0 -14 -4 -24 -8 -21 -4 2 -8 -7 -7
-22 0 -15 -3 -30 -8 -33 -5 -4 -7 -15 -5 -25 3 -14 9 -9 22 21 15 34 38 127
33 131 -1 1 -8 -4 -14 -12z"/>
<path d="M4585 3230 c-4 -6 -2 -16 4 -23 7 -9 5 -16 -10 -25 -19 -12 -19 -13
2 -53 21 -41 78 -126 80 -118 1 2 3 20 4 40 3 31 1 36 -14 32 -13 -3 -24 6
-40 32 -30 51 -26 64 9 30 35 -34 49 -29 21 7 -14 17 -17 28 -10 35 8 8 5 17
-7 32 -21 23 -30 26 -39 11z"/>
<path d="M470 1972 c0 -5 7 -15 15 -22 16 -14 21 -45 5 -35 -6 3 -7 -1 -4 -9
3 -9 10 -13 16 -10 5 3 15 -2 22 -11 18 -24 51 -11 66 26 18 43 0 60 -40 37
-23 -13 -30 -14 -34 -3 -6 17 -46 39 -46 27z m86 -70 c-14 -14 -16 -14 -16 -1
0 20 23 44 29 28 2 -6 -4 -18 -13 -27z"/>
<path d="M646 1947 c-16 -12 -16 -14 -2 -26 20 -17 49 -6 44 16 -4 22 -20 26
-42 10z"/>
<path d="M662 1838 c-5 -7 -11 -22 -14 -33 -2 -14 -12 -21 -36 -23 -38 -4 -73
-45 -54 -64 8 -8 14 -4 21 15 8 21 17 27 39 27 32 0 52 16 52 41 0 17 4 16 48
-3 26 -11 61 -35 77 -53 17 -18 48 -41 71 -53 53 -27 65 -16 57 51 -7 55 10
61 22 7 3 -16 15 -39 24 -52 10 -13 32 -52 48 -88 16 -36 51 -90 77 -120 26
-30 55 -68 63 -85 9 -16 24 -41 34 -54 11 -13 19 -31 18 -40 0 -11 -4 -9 -11
7 -11 22 -38 31 -38 11 0 -23 22 -49 40 -49 39 0 23 -127 -29 -230 -4 -8 -21
-21 -37 -29 -16 -8 -32 -18 -35 -24 -4 -5 -24 10 -45 34 -41 45 -176 180 -215
214 -12 11 -4 -4 19 -33 47 -61 293 -312 305 -312 21 0 17 34 -7 59 -29 30
-32 41 -13 41 31 0 84 98 102 187 16 81 -27 185 -129 308 -27 33 -65 92 -83
130 -47 95 -73 146 -90 173 -22 36 -43 11 -43 -49 0 -27 -2 -49 -6 -49 -12 0
-75 48 -94 72 -11 15 -36 32 -54 38 -19 6 -40 18 -46 26 -15 17 -24 18 -38 2z
m473 -878 c27 -30 12 -34 -15 -5 -13 14 -19 25 -13 25 5 0 18 -9 28 -20z"/>
<path d="M2003 1553 c-20 -8 -15 -31 7 -38 28 -9 54 13 39 31 -12 14 -24 16
-46 7z"/>
<path d="M1935 1520 c-17 -19 -17 -21 0 -40 22 -24 38 -25 55 -4 11 13 9 19
-11 40 l-25 25 -19 -21z m35 -26 c0 -8 -4 -12 -10 -9 -5 3 -10 10 -10 16 0 5
5 9 10 9 6 0 10 -7 10 -16z"/>
<path d="M3049 600 l-24 -20 24 -20 c13 -11 26 -20 30 -20 15 0 63 59 57 69
-11 18 -62 13 -87 -9z m51 -15 c-13 -16 -40 -20 -40 -7 0 14 12 22 33 22 16 0
17 -3 7 -15z"/>
</g>
</svg>
